<svg width="55" height="68" viewBox="0 0 55 68" fill="none" xmlns="http://www.w3.org/2000/svg">
<path id="Vector" d="M1.76296 33.308C2.31371 30.0377 3.14308 26.8189 4.23162 23.6709C5.32665 20.5165 6.71973 17.5231 8.43031 14.6841C10.1474 11.8451 12.1365 9.36024 14.4043 7.22941C16.6721 5.09857 19.251 3.41193 22.1473 2.17592C25.0371 0.946343 28.2185 0.321899 31.7044 0.321899C35.3718 0.321899 38.5726 0.920593 41.3134 2.13086C44.0478 3.33468 46.3156 5.02132 48.1233 7.17791C49.9246 9.34093 51.2788 11.9224 52.173 14.9159C53.0736 17.9158 53.5336 21.2311 53.5336 24.8748C53.5336 28.0292 53.255 31.2866 52.6913 34.647C52.1276 38.0138 51.2788 41.2713 50.1255 44.4192C48.9721 47.5672 47.5143 50.5671 45.7454 53.4061C43.97 56.2515 41.9031 58.7171 39.5381 60.8157C37.1795 62.9143 34.5035 64.5817 31.523 65.8177C28.536 67.0537 25.212 67.6717 21.5447 67.6717C17.8773 67.6717 14.6246 67.0086 11.981 65.6825C9.33741 64.3564 7.2057 62.5474 5.5988 60.2621C3.97246 57.9767 2.79968 55.3373 2.05454 52.3439C1.30293 49.3504 0.933594 46.1831 0.933594 42.8485C0.933594 39.7584 1.2122 36.5783 1.77591 33.308H1.76296ZM14.4886 49.9362C14.7672 51.3267 15.2467 52.5306 15.94 53.5541C16.6203 54.5713 17.5469 55.3888 18.7326 56.0068C19.9183 56.6248 21.4021 56.9338 23.2099 56.9338C25.4518 56.9338 27.4215 56.303 29.1321 55.0348C30.8427 53.7666 32.32 52.1185 33.564 50.0778C34.8081 48.0371 35.8642 45.7518 36.739 43.2218C37.6072 40.6919 38.307 38.1619 38.8318 35.6255C39.3631 33.0955 39.7325 30.7008 39.9528 28.4476C40.1666 26.1945 40.2767 24.3211 40.2767 22.8405C40.2767 21.2375 40.1018 19.7247 39.7584 18.2956C39.415 16.8793 38.8577 15.6433 38.0802 14.5875C37.2962 13.5382 36.3048 12.7078 35.0997 12.0898C33.888 11.4718 32.4366 11.1628 30.7584 11.1628C28.5813 11.1628 26.6634 11.7936 24.9788 13.0618C23.3006 14.33 21.8427 15.9781 20.5987 18.0188C19.3546 20.053 18.3114 22.3577 17.4691 24.9198C16.6333 27.482 15.9659 30.0313 15.467 32.5612C14.968 35.0976 14.6117 37.5053 14.3979 39.7906C14.1776 42.0759 14.0739 43.9879 14.0739 45.5329C14.0739 47.0779 14.21 48.5457 14.4886 49.9298V49.9362Z" fill="url(#paint0_linear_54_18)" stroke="#C6C6C6" stroke-miterlimit="10"/>
<defs>
<linearGradient id="paint0_linear_54_18" x1="-200.953" y1="35.1298" x2="-30.1094" y2="34.269" gradientUnits="userSpaceOnUse">
<stop stop-color="#CCCCCC"/>
<stop offset="1" stop-color="#F2F2F2"/>
</linearGradient>
</defs>
</svg>
