<svg width="68" height="67" viewBox="0 0 68 67" fill="none" xmlns="http://www.w3.org/2000/svg">
<path id="Vector" d="M39.2113 0.321899C48.6 0.321899 55.6496 2.56217 60.3796 7.03628C65.1031 11.5168 67.4681 17.8643 67.4681 26.0786C67.4681 31.8209 66.6582 37.1641 65.0383 42.1081C63.425 47.0457 61.0146 51.3267 57.8138 54.9382C54.6129 58.5561 50.6021 61.3758 45.7879 63.4165C40.9737 65.4572 35.3625 66.4743 28.9544 66.4743H1.16406L15.1467 0.321899H39.2113ZM29.6023 54.2429C33.328 54.2429 36.6455 53.567 39.5353 52.2022C42.4251 50.8439 44.8484 48.9963 46.8052 46.6466C48.762 44.2969 50.2587 41.5867 51.2825 38.4902C52.3062 35.4002 52.8246 32.0977 52.8246 28.5764C52.8246 26.1687 52.5589 23.9928 52.0276 22.0487C51.5028 20.1045 50.6475 18.4243 49.4618 16.9952C48.2825 15.5789 46.7728 14.4781 44.9391 13.7056C43.1119 12.9331 40.8895 12.5468 38.2783 12.5468H27.2762L18.3216 54.2365H29.6088L29.6023 54.2429Z" fill="url(#paint0_linear_54_16)" stroke="#C6C6C6" stroke-miterlimit="10"/>
<defs>
<linearGradient id="paint0_linear_54_16" x1="-79.9585" y1="33.9067" x2="90.8847" y2="33.0458" gradientUnits="userSpaceOnUse">
<stop stop-color="#CCCCCC"/>
<stop offset="1" stop-color="#F2F2F2"/>
</linearGradient>
</defs>
</svg>
